<svg fill="none" height="32" viewBox="0 0 32 32" width="32" xmlns="http://www.w3.org/2000/svg"><g fill="#212121"><path d="m14.4646 2.8114c.495-.04055 1.0068-.0614 1.5354-.0614s1.0404.02085 1.5354.0614c.4128.03382.7749-.27344.8087-.68627s-.2734-.77491-.6862-.80872c-.5372-.04401-1.0899-.06641-1.6579-.06641s-1.1207.0224-1.6579.06641c-.4128.03381-.72.39589-.6862.80872s.3959.72009.8087.68627z"/><path d="m22.0088 2.25069c-.3885-.14377-.8199.05458-.9637.44304s.0546.81993.443.9637c.9826.36367 1.8679.82823 2.6579 1.37853.3399.23674.8074.15313 1.0441-.18676.2368-.33988.1532-.80734-.1867-1.04409-.8973-.62499-1.8962-1.14788-2.9946-1.55442z"/><path d="m10.5118 3.65743c.3885-.14377.5869-.57524.4431-.9637s-.5752-.58681-.96371-.44304c-1.09842.40654-2.09728.92943-2.99456 1.55442-.33988.23675-.42349.70421-.18675 1.04409.23675.33989.70421.4235 1.04409.18676.79003-.5503 1.6753-1.01486 2.65783-1.37853z"/><path d="m5.06027 7.85206c.23465-.34135.14815-.80828-.1932-1.04292-.34134-.23464-.80827-.14814-1.04291.1932-.63334.92135-1.14833 1.9257-1.5465 2.99313-.14477.38813.05249.82003.44058.96483s.82006-.0525.96483-.4406c.35777-.95911.81734-1.85318 1.3772-2.66764z"/><path d="m28.1758 7.00234c-.2346-.34134-.7015-.42784-1.0429-.1932-.3413.23464-.4278.70157-.1932 1.04292.5599.81446 1.0195 1.70853 1.3772 2.66764.1448.3881.5768.5854.9649.4406s.5853-.5767.4405-.96483c-.3981-1.06743-.9131-2.07178-1.5465-2.99313z"/><path d="m2.81535 14.469c.03581-.4126-.26969-.7762-.68236-.812-.41266-.0358-.77622.2697-.81202.6824-.04737.5458-.07097 1.1-.07097 1.6606s.0236 1.1148.07097 1.6606c.0358.4127.39936.7182.81202.6824.41267-.0358.71817-.3994.68236-.812-.04352-.5016-.06535-1.0124-.06535-1.531s.02183-1.0294.06535-1.531z"/><path d="m30.679 14.3394c-.0358-.4127-.3993-.7182-.812-.6824s-.7182.3994-.6824.812c.0436.5016.0654 1.0124.0654 1.531s-.0218 1.0294-.0654 1.531c-.0358.4126.2697.7762.6824.812s.7762-.2697.812-.6824c.0474-.5458.071-1.1.071-1.6606s-.0236-1.1148-.071-1.6606z"/><path d="m29.7223 22.0045c.1448-.3881-.0524-.82-.4405-.9648s-.8201.0525-.9649.4406c-.3577.9591-.8173 1.8532-1.3772 2.6676-.2346.3414-.1481.8083.1932 1.043.3414.2346.8083.1481 1.0429-.1932.6334-.9214 1.1484-1.9257 1.5465-2.9932z"/><path d="m3.68307 21.4803c-.14477-.3881-.57674-.5854-.96483-.4406s-.58535.5767-.44058.9648c.39817 1.0675.91316 2.0718 1.5465 2.9932.23464.3413.70157.4278 1.04291.1932.34135-.2347.42785-.7016.1932-1.043-.55986-.8144-1.01943-1.7085-1.3772-2.6676z"/><path d="m7.85397 26.964c-.33988-.2367-.80734-.1531-1.04409.1868-.23674.3399-.15313.8073.18675 1.0441.89728.625 1.89614 1.1479 2.99456 1.5544.38851.1438.81991-.0546.96371-.443.1438-.3885-.0546-.82-.4431-.9637-.98253-.3637-1.8678-.8283-2.65783-1.3786z"/><path d="m25.0034 28.1949c.3399-.2368.4235-.7042.1867-1.0441-.2367-.3399-.7042-.4235-1.0441-.1868-.79.5503-1.6753 1.0149-2.6578 1.3786-.3885.1437-.5869.5752-.4431.9637.1438.3884.5752.5868.9637.443 1.0984-.4065 2.0973-.9294 2.9946-1.5544z"/><path d="m14.4646 29.1886c-.4128-.0338-.7749.2734-.8087.6863-.0338.4128.2734.7749.6862.8087.5372.044 1.0899.0664 1.6579.0664s1.1207-.0224 1.6579-.0664c.4128-.0338.72-.3959.6862-.8087-.0338-.4129-.3959-.7201-.8087-.6863-.495.0406-1.0068.0614-1.5354.0614s-1.0404-.0208-1.5354-.0614z"/><path d="m14.3302 11.4811c0 1.7729-1.4373 3.2102-3.2102 3.2102-1.77287 0-3.21009-1.4373-3.21009-3.2102 0-1.77288 1.43722-3.2101 3.21009-3.2101 1.7729 0 3.2102 1.43722 3.2102 3.2101z"/><path d="m17.6667 11.4811c0 1.7729 1.4372 3.2102 3.2101 3.2102s3.2101-1.4373 3.2101-3.2102c0-1.77288-1.4372-3.2101-3.2101-3.2101s-3.2101 1.43722-3.2101 3.2101z"/><path d="m10.7428 19.5024c0-.4142.3358-.75.75-.75h9.0121c.4142 0 .75.3358.75.75 0 .4143-.3358.75-.75.75h-9.0121c-.4142 0-.75-.3357-.75-.75z"/></g></svg>